<?xml version="1.0" encoding="UTF-8"?>
<!DOCTYPE svg PUBLIC "-//W3C//DTD SVG Tiny 1.2//EN" 
  "http://www.w3.org/Graphics/SVG/1.2/DTD/svg12-tiny.dtd">
<svg xmlns="http://www.w3.org/2000/svg" baseProfile="tiny-ps" version="1.2" width="121px" height="120px" style="shape-rendering:geometricPrecision; text-rendering:geometricPrecision; image-rendering:optimizeQuality; fill-rule:evenodd; clip-rule:evenodd" xmlns:xlink="http://www.w3.org/1999/xlink"><title>Let's Talk Dirt</title>
<g><path style="opacity:1" fill="#fefefd" d="M -0.5,-0.5 C 39.8333,-0.5 80.1667,-0.5 120.5,-0.5C 120.5,39.5 120.5,79.5 120.5,119.5C 80.1667,119.5 39.8333,119.5 -0.5,119.5C -0.5,79.5 -0.5,39.5 -0.5,-0.5 Z"/></g>
<g><path style="opacity:1" fill="#84b543" d="M 38.5,31.5 C 47.6142,31.132 56.6142,31.9654 65.5,34C 76.8589,39.1802 88.5255,43.5135 100.5,47C 106.577,47.5737 112.577,47.5737 118.5,47C 108.786,62.3806 96.1196,74.7139 80.5,84C 64.7465,90.2304 48.4131,92.2304 31.5,90C 23.5017,89.1471 17.5017,85.3138 13.5,78.5C 9.74677,82.9994 6.74677,87.9994 4.5,93.5C 3.16667,92.8333 2.16667,91.8333 1.5,90.5C 8.08308,73.7496 19.7497,62.2496 36.5,56C 41.8333,55.8333 47.1667,55.6667 52.5,55.5C 65.5097,56.1875 78.5097,56.6875 91.5,57C 79.79,54.8219 68.1233,52.4886 56.5,50C 44.4984,47.7821 33.4984,50.1155 23.5,57C 19.1667,60.5 14.8333,64 10.5,67.5C 6.95315,54.2992 10.9531,44.1325 22.5,37C 27.715,34.4295 33.0484,32.5961 38.5,31.5 Z"/></g>
</svg>
